<svg width="28" height="28" viewBox="0 0 28 28" fill="none" xmlns="http://www.w3.org/2000/svg">
<path d="M13.9999 16.9167L3.79158 27.125C3.40964 27.507 2.92353 27.698 2.33325 27.698C1.74297 27.698 1.25686 27.507 0.874918 27.125C0.492973 26.7431 0.302002 26.257 0.302002 25.6667C0.302002 25.0764 0.492973 24.5903 0.874918 24.2084L11.0833 14L0.874918 3.79171C0.492973 3.40976 0.302002 2.92365 0.302002 2.33337C0.302002 1.7431 0.492973 1.25698 0.874918 0.87504C1.25686 0.493095 1.74297 0.302124 2.33325 0.302124C2.92353 0.302124 3.40964 0.493095 3.79158 0.87504L13.9999 11.0834L24.2082 0.87504C24.5902 0.493095 25.0763 0.302124 25.6666 0.302124C26.2569 0.302124 26.743 0.493095 27.1249 0.87504C27.5069 1.25698 27.6978 1.7431 27.6978 2.33337C27.6978 2.92365 27.5069 3.40976 27.1249 3.79171L16.9166 14L27.1249 24.2084C27.5069 24.5903 27.6978 25.0764 27.6978 25.6667C27.6978 26.257 27.5069 26.7431 27.1249 27.125C26.743 27.507 26.2569 27.698 25.6666 27.698C25.0763 27.698 24.5902 27.507 24.2082 27.125L13.9999 16.9167Z" fill="#FF1F70"/>
</svg>
