<svg width="38" height="26" viewBox="0 0 38 26" fill="none" xmlns="http://www.w3.org/2000/svg">
<path d="M2.33334 25.5C1.74306 25.5 1.24862 25.3 0.850007 24.9C0.451396 24.5 0.251396 24.0056 0.250007 23.4167C0.248618 22.8278 0.448619 22.3333 0.850007 21.9333C1.2514 21.5333 1.74584 21.3333 2.33334 21.3333H35.6667C36.257 21.3333 36.7521 21.5333 37.1521 21.9333C37.5521 22.3333 37.7514 22.8278 37.75 23.4167C37.7486 24.0056 37.5486 24.5007 37.15 24.9021C36.7514 25.3035 36.257 25.5028 35.6667 25.5H2.33334ZM2.33334 15.0833C1.74306 15.0833 1.24862 14.8833 0.850007 14.4833C0.451396 14.0833 0.251396 13.5889 0.250007 13C0.248618 12.4111 0.448619 11.9167 0.850007 11.5167C1.2514 11.1167 1.74584 10.9167 2.33334 10.9167H35.6667C36.257 10.9167 36.7521 11.1167 37.1521 11.5167C37.5521 11.9167 37.7514 12.4111 37.75 13C37.7486 13.5889 37.5486 14.084 37.15 14.4854C36.7514 14.8868 36.257 15.0861 35.6667 15.0833H2.33334ZM2.33334 4.66667C1.74306 4.66667 1.24862 4.46667 0.850007 4.06667C0.451396 3.66667 0.251396 3.17222 0.250007 2.58333C0.248618 1.99444 0.448619 1.5 0.850007 1.1C1.2514 0.7 1.74584 0.5 2.33334 0.5H35.6667C36.257 0.5 36.7521 0.7 37.1521 1.1C37.5521 1.5 37.7514 1.99444 37.75 2.58333C37.7486 3.17222 37.5486 3.66736 37.15 4.06875C36.7514 4.47014 36.257 4.66944 35.6667 4.66667H2.33334Z" fill="#FF1F70"/>
</svg>
