<svg width="32" height="32" viewBox="0 0 32 32" fill="none" xmlns="http://www.w3.org/2000/svg">
<path d="M5.33337 9.33333H26.6667M13.3334 14.6667V22.6667M18.6667 14.6667V22.6667M6.66671 9.33333L8.00004 25.3333C8.00004 26.0406 8.28099 26.7189 8.78109 27.219C9.28119 27.719 9.95946 28 10.6667 28H21.3334C22.0406 28 22.7189 27.719 23.219 27.219C23.7191 26.7189 24 26.0406 24 25.3333L25.3334 9.33333M12 9.33333V5.33333C12 4.97971 12.1405 4.64057 12.3906 4.39052C12.6406 4.14048 12.9798 4 13.3334 4H18.6667C19.0203 4 19.3595 4.14048 19.6095 4.39052C19.8596 4.64057 20 4.97971 20 5.33333V9.33333" stroke="#FF4242" stroke-width="2" stroke-linecap="round" stroke-linejoin="round"/>
</svg>
